<svg width="46" height="46" viewBox="0 0 46 46" fill="none" xmlns="http://www.w3.org/2000/svg">
<path d="M5.5 45.8C4.125 45.8 2.94833 45.3108 1.97 44.3325C0.991667 43.3542 0.501667 42.1767 0.5 40.8V5.79999C0.5 4.42499 0.99 3.24832 1.97 2.26999C2.95 1.29165 4.12667 0.801654 5.5 0.799988H25.5C26.2083 0.799988 26.8025 1.03999 27.2825 1.51999C27.7625 1.99999 28.0017 2.59332 28 3.29999C28 4.00832 27.76 4.60249 27.28 5.08249C26.8 5.56249 26.2067 5.80165 25.5 5.79999H5.5V40.8H40.5V20.8C40.5 20.0917 40.74 19.4983 41.22 19.02C41.7 18.5417 42.2933 18.3017 43 18.3C43.7083 18.3 44.3025 18.54 44.7825 19.02C45.2625 19.5 45.5017 20.0933 45.5 20.8V40.8C45.5 42.175 45.0108 43.3525 44.0325 44.3325C43.0542 45.3125 41.8767 45.8017 40.5 45.8H5.5ZM35.5 10.8H33C32.2917 10.8 31.6983 10.56 31.22 10.08C30.7417 9.59999 30.5017 9.00665 30.5 8.29999C30.5 7.59165 30.74 6.99832 31.22 6.51999C31.7 6.04165 32.2933 5.80165 33 5.79999H35.5V3.29999C35.5 2.59165 35.74 1.99832 36.22 1.51999C36.7 1.04165 37.2933 0.801654 38 0.799988C38.7083 0.799988 39.3025 1.03999 39.7825 1.51999C40.2625 1.99999 40.5017 2.59332 40.5 3.29999V5.79999H43C43.7083 5.79999 44.3025 6.03999 44.7825 6.51999C45.2625 6.99999 45.5017 7.59332 45.5 8.29999C45.5 9.00832 45.26 9.60249 44.78 10.0825C44.3 10.5625 43.7067 10.8017 43 10.8H40.5V13.3C40.5 14.0083 40.26 14.6025 39.78 15.0825C39.3 15.5625 38.7067 15.8017 38 15.8C37.2917 15.8 36.6983 15.56 36.22 15.08C35.7417 14.6 35.5017 14.0067 35.5 13.3V10.8ZM21.125 33.3L16.5 27.1125C16.25 26.7792 15.9167 26.6125 15.5 26.6125C15.0833 26.6125 14.75 26.7792 14.5 27.1125L9.5 33.8C9.16667 34.2167 9.125 34.6542 9.375 35.1125C9.625 35.5708 10 35.8 10.5 35.8H35.5C36 35.8 36.375 35.5708 36.625 35.1125C36.875 34.6542 36.8333 34.2167 36.5 33.8L29.625 24.6125C29.375 24.2792 29.0417 24.1125 28.625 24.1125C28.2083 24.1125 27.875 24.2792 27.625 24.6125L21.125 33.3Z" fill="white"/>
</svg>
