<svg width="47" height="58" viewBox="0 0 47 58" fill="none" xmlns="http://www.w3.org/2000/svg">
<path d="M40.5002 57.3333C42.0031 57.3333 43.4444 56.7363 44.5071 55.6736C45.5698 54.6109 46.1668 53.1696 46.1668 51.6667V17.6667L29.1668 0.666656H6.50016C4.99727 0.666656 3.55593 1.26368 2.49322 2.32638C1.43052 3.38909 0.833496 4.83043 0.833496 6.33332V51.6667C0.833496 53.1696 1.43052 54.6109 2.49322 55.6736C3.55593 56.7363 4.99727 57.3333 6.50016 57.3333H40.5002ZM26.3335 6.33332L40.5002 20.5H26.3335V6.33332ZM9.3335 17.6667H17.8335V23.3333H9.3335V17.6667ZM9.3335 29H37.6668V34.6667H9.3335V29ZM9.3335 40.3333H37.6668V46H9.3335V40.3333Z" fill="white"/>
</svg>
